<svg xmlns="http://www.w3.org/2000/svg" version="1.0" width="24" height="24"><path d="m11.867 19.43-4.797 3v-3H2.068V0H23.5v15l-4.446 4.43Z" style="fill:#fff"/><path style="clip-rule:evenodd;fill:#6441a5;fill-opacity:1;fill-rule:evenodd" d="M17.5 6h-2v6h2V6zM2.068 0 .5 4v17h5v3h3.886l3.114-3h5l6-6V0H2.068zM21.5 13l-4 4h-6l-3 3v-3h-4V2h17v11zm-9-7h-2v6h2V6z"/><path style="clip-rule:evenodd;fill:#f3703e;fill-opacity:1;fill-rule:evenodd" d="M2.068 0v19.43H7.07v3h1.683l3.114-3h7.187L23.5 15V0ZM21.5 13l-4 4h-6l-3 3v-3h-4V2h17z"/></svg>
